<svg xmlns="http://www.w3.org/2000/svg" width="1644.566" height="252.018" viewBox="0 0 1644.566 252.018"><g transform="translate(3496.536 -5560.79)"><path d="M242.19-249.21q13.338,0,21.762,8.775t8.424,22.815V-26.676q0,13.338-7.722,21.06T244.3,2.106q-12.285,0-20.183-7.722t-7.9-21.06V-129.87L176.2-56.16q-5.967,11.232-12.636,15.971a26.558,26.558,0,0,1-15.795,4.739,26.558,26.558,0,0,1-15.795-4.739q-6.669-4.739-12.636-15.971l-39.663-71.6V-26.676q0,12.987-7.9,20.885t-20.533,7.9q-12.285,0-20.183-7.722t-7.9-21.06V-217.62q0-14.04,8.6-22.815T53.7-249.21a29.177,29.177,0,0,1,17.2,5.44q7.722,5.44,12.987,15.62L148.473-106.7,212.706-228.15Q223.587-249.21,242.19-249.21Zm212,193.752a16.128,16.128,0,0,1,13.162,6.318q5.09,6.318,5.09,16.5,0,14.04-13.689,21.411a136.737,136.737,0,0,1-28.255,10,125.741,125.741,0,0,1-30.01,4.037q-28.782,0-50.193-10.881A77.385,77.385,0,0,1,317.3-39.312Q305.721-59.67,305.721-87.048q0-25.974,11.057-46.508A79.6,79.6,0,0,1,347.666-165.5Q367.5-176.9,392.418-176.9q24.219,0,42.471,10.53a71.718,71.718,0,0,1,28.255,29.835q10,19.305,10,45.279,0,8.073-3.686,12.461t-10.706,4.388H366.093q2.457,16.848,10.881,24.219T401.9-42.822a63.634,63.634,0,0,0,16.146-1.931,158.259,158.259,0,0,0,16.5-5.44q5.265-2.106,10.354-3.686A31.623,31.623,0,0,1,454.194-55.458Zm-60.021-79.326q-12.285,0-19.656,7.9T365.742-103.9h55.107Q418.743-134.784,394.173-134.784ZM617.76-176.9q30.888,0,45.981,18.427t15.093,55.985v75.816q0,13.338-8.424,21.06T647.6,2.106q-14.391,0-22.815-7.722t-8.424-21.06V-99.684q0-15.444-5.44-22.464t-16.322-7.02q-14.04,0-22.288,8.951t-8.249,24.044v69.5q0,13.338-8.424,21.06T532.818,2.106q-14.391,0-22.815-7.722t-8.424-21.06V-148.122a25.941,25.941,0,0,1,8.775-20.182q8.775-7.9,22.815-7.9,13.338,0,21.236,7.371t7.9,19.3a59.859,59.859,0,0,1,23.517-20.358A71.876,71.876,0,0,1,617.76-176.9Zm239.031.7q14.391,0,22.815,7.722t8.424,21.06V-25.974a25.941,25.941,0,0,1-8.775,20.183q-8.775,7.9-22.815,7.9-12.636,0-20.709-6.845t-8.424-18.428A54.921,54.921,0,0,1,806.773-3.861q-12.461,6.669-28.607,6.669-33.345,0-49.491-18.428T712.53-71.6V-147.42q0-13.338,8.424-21.06t22.815-7.722q14.391,0,22.815,7.722t8.424,21.06V-70.2q0,25.272,21.762,25.272a26.4,26.4,0,0,0,20.709-9.126q8.073-9.126,8.073-23.868v-69.5q0-13.338,8.424-21.06T856.791-176.2Z" transform="translate(-2740 5810)" fill="#ff4060"/><path d="M212.706-249.21q13.338,0,21.938,8.775t8.6,22.815V-29.835q0,14.391-8.424,23.166T213.057,2.106q-15.8,0-23.868-10.53L82.485-141.453V-29.835q0,14.391-8.073,23.166T52.65,2.106q-13.338,0-21.762-8.775T22.464-29.835V-217.62q0-14.04,8.424-22.815T52.65-249.21q15.093,0,23.517,10.53L182.871-106V-217.62q0-14.391,8.249-22.991T212.706-249.21ZM371.007,2.808q-28.431,0-50.018-11.057a79.361,79.361,0,0,1-33.345-31.415Q275.886-60.021,275.886-87.4t11.759-47.561a78.8,78.8,0,0,1,33.169-31.064Q342.225-176.9,371.007-176.9T421.2-166.023A78.8,78.8,0,0,1,454.37-134.96q11.758,20.183,11.759,47.561T454.37-39.663A79.6,79.6,0,0,1,421.2-8.249Q399.789,2.808,371.007,2.808Zm0-46.683q33.345,0,33.345-43.524t-33.345-43.524q-33.345,0-33.345,43.524T371.007-43.875Zm350.3-114.777q3.51-8.775,10-13.162a24.866,24.866,0,0,1,14.216-4.388,30.783,30.783,0,0,1,20.709,7.9q9.126,7.9,9.126,19.13a28.8,28.8,0,0,1-2.808,11.583L715.689-15.8A28.882,28.882,0,0,1,703.931-2.282a33.138,33.138,0,0,1-17.375,4.739,32.233,32.233,0,0,1-17.2-4.739A29.184,29.184,0,0,1,657.774-15.8L624.429-89.856,593.19-15.8A27,27,0,0,1,581.783-2.282a33.138,33.138,0,0,1-17.375,4.739,33.138,33.138,0,0,1-17.375-4.739A30.944,30.944,0,0,1,534.924-15.8l-56.511-121.8a26.235,26.235,0,0,1-2.457-11.232q0-11.583,9.652-19.48a33.234,33.234,0,0,1,21.586-7.9,27.7,27.7,0,0,1,15.268,4.388q6.844,4.388,10.354,13.513L566.163-77.22l34.047-80.73a26.894,26.894,0,0,1,10.881-13.338,29.486,29.486,0,0,1,15.795-4.563,29.486,29.486,0,0,1,15.8,4.563,26.894,26.894,0,0,1,10.881,13.338l35.1,81.081Z" transform="translate(-3519 5810)" fill="#162437"/></g></svg>